<?xml version="1.0" encoding="utf-8"?>
<!-- Generator: Adobe Illustrator 17.0.0, SVG Export Plug-In . SVG Version: 6.00 Build 0)  -->
<!DOCTYPE svg PUBLIC "-//W3C//DTD SVG 1.1//EN" "http://www.w3.org/Graphics/SVG/1.1/DTD/svg11.dtd">
<svg version="1.1" id="Layer_1" xmlns="http://www.w3.org/2000/svg" xmlns:xlink="http://www.w3.org/1999/xlink" x="0px" y="0px"
	 width="499.986px" height="68.52px" viewBox="0 0 499.986 68.52" enable-background="new 0 0 499.986 68.52" xml:space="preserve">
<g>
	<path d="M499.993,23.615c-2.168,4.849-6.152,8.443-9.028,12.965c1.569,0.922,3.019,1.969,4.621,2.665
		c1.894,0.823,2.491,2.019,2.368,4.069c-0.201,3.34-0.057,6.7-0.052,10.052c0.001,0.471,0.012,0.849-0.595,1.051
		c-2.961,0.983-5.567,2.627-8.095,4.418c-0.271,0.192-0.824,0.282-1.095,0.137c-4.446-2.389-8.948-2.234-13.51-0.4
		c-1.023,0.411-1.028,0.401-2.005-0.397c2.98-4.102,5.962-8.205,9.019-12.412c-2.114-1.125-4.076-2.248-6.11-3.218
		c-0.925-0.441-1.177-0.988-1.156-1.963c0.064-3.055,0.041-6.112,0.009-9.167c-0.007-0.613,0.175-0.935,0.74-1.19
		c2.895-1.304,5.506-3.057,7.866-5.175c0.419-0.376,0.703-0.341,1.197-0.154c2.325,0.877,4.638,1.84,7.038,2.444
		c1.314,0.331,2.801,0.104,4.192-0.045c1.034-0.111,1.786-0.793,2.127-1.825c0.313-0.946-0.126-1.652-0.761-2.288
		c-0.116-0.116-0.241-0.226-0.343-0.353c-0.43-0.532-1.025-1.068-0.586-1.817c0.434-0.741,1.225-0.829,2.006-0.731
		c1.162,0.145,1.68,1.031,2.152,1.953C499.993,22.695,499.993,23.155,499.993,23.615z M491.667,53.365
		c0-3.154,0.016-6.073-0.028-8.991c-0.004-0.259-0.345-0.601-0.615-0.751c-1.06-0.592-2.17-1.095-3.23-1.688
		c-0.522-0.292-0.787-0.158-1.132,0.281c-2.293,2.92-4.616,5.816-6.926,8.724c-0.187,0.236-0.342,0.497-0.512,0.746
		c0.032,0.076,0.064,0.151,0.095,0.227C483.589,50.528,487.586,51.487,491.667,53.365z M481.206,30.358
		c0,1.623-0.007,3.052,0.002,4.481c0.008,1.244-0.39,2.746,0.167,3.66c0.58,0.951,2.106,1.31,3.187,1.977
		c0.607,0.374,0.972,0.373,1.442-0.269c1.394-1.902,2.879-3.738,4.321-5.605c0.69-0.894,1.364-1.801,2.045-2.701
		c-0.03-0.095-0.061-0.191-0.091-0.286C488.486,32.518,484.861,31.964,481.206,30.358z"/>
	<path d="M377.094,64.755c-0.764-0.302-0.72-0.821-0.566-1.457c1.173-4.848,3.088-9.422,5.099-13.963
		c1.622-3.664,3.189-7.354,4.82-11.014c0.358-0.802,0.206-1.257-0.487-1.807c-3.496-2.774-7.24-2.979-11.201-1.21
		c-1.048,0.468-2.047,1.043-3.087,1.531c-0.553,0.26-0.718,0.636-0.712,1.238c0.03,3.024,0.121,6.054-0.008,9.072
		c-0.299,6.972-3.195,12.538-9.31,16.151c-3.629,2.145-7.568,2.215-11.561,1.226c-2.008-0.497-3.996-1.079-5.984-1.654
		c-2.973-0.86-5.849-0.606-8.651,0.673c-0.2,0.091-0.416,0.145-0.924,0.319c0.327-0.536,0.452-0.912,0.709-1.136
		c1.307-1.139,2.561-2.373,4.001-3.318c1.752-1.149,3.643-2.101,5.526-3.03c2.234-1.102,4.616-0.712,6.978-0.529
		c1.597,0.124,3.212,0.228,4.806,0.126c1.87-0.119,2.924-1.355,3.384-3.102c0.93-3.536-0.362-6.131-3.784-7.655
		c-1.984-0.883-4.081-1.225-6.235-1.271c-0.942-0.02-1.885-0.003-2.946-0.003c2.579-4.406,6.26-4.202,10.434-2.618
		c-0.868-2.924-2.443-4.966-4.771-6.429c-2.307-1.45-4.887-1.988-7.717-2.081c1.439-2.231,3.301-3.379,5.86-3.356
		c2.395,0.021,4.41,1.093,6.582,2.479c-0.638-3.155-1.942-5.599-4.295-7.413c-2.329-1.796-5.092-2.3-8.104-2.438
		c1.639-1.935,3.323-3.46,5.819-3.597c2.433-0.134,4.376,1.195,6.529,2.437c0.022-0.433,0.05-0.732,0.051-1.032
		c0.004-1.841-0.035-3.683,0.031-5.522c0.014-0.403,0.288-0.961,0.617-1.164c6.816-4.214,13.655-8.39,20.501-12.555
		c0.24-0.146,0.632-0.217,0.891-0.133c4.466,1.458,8.698,3.369,12.299,6.473c5.533,4.77,7.567,10.806,6.399,17.948
		c-0.956,5.844-3.483,11.076-6.606,16.021c-1.838,2.91-3.915,5.67-5.882,8.499c-0.195,0.28-0.369,0.574-0.69,1.075
		c0.885-0.221,1.508-0.388,2.136-0.531c3.38-0.769,6.733-0.325,10.083,0.24c0.292,0.049,0.595,0.07,0.87,0.168
		c0.832,0.297,1.349,0.003,1.716-0.767c0.209-0.438,0.529-0.822,0.837-1.288c0.532,0.326,1.026,0.628,1.633,0.999
		c-0.479,0.872-0.941,1.723-1.412,2.569c-1.344,2.409-2.705,4.809-4.028,7.23c-0.314,0.575-0.631,0.72-1.316,0.601
		c-2.326-0.405-4.663-0.857-7.013-0.987c-4.62-0.255-8.309,1.57-10.914,5.455C377.376,64.415,377.227,64.584,377.094,64.755z
		 M370.974,9.468c0,2.791,0,5.509,0,8.227c0.001,3.865,0.001,3.865,3.532,5.515c4.907,2.292,9.594,1.696,13.291-1.652
		c0.532-0.482,0.686-0.863,0.376-1.585C385.38,13.455,378.042,9.789,370.974,9.468z M369.031,9.527
		c-0.956,0.519-1.697,0.996-2.497,1.335c-0.757,0.32-0.947,0.801-0.945,1.591c0.026,10.125,0.026,20.25,0.008,30.374
		c-0.003,1.608-0.049,3.224-0.211,4.822c-0.418,4.126-2.051,7.578-5.73,9.819c-0.128,0.078-0.234,0.192-0.599,0.498
		c0.735,0.058,1.195,0.157,1.643,0.119c3.376-0.286,5.618-2.11,6.964-5.159c1.186-2.685,1.341-5.543,1.351-8.399
		c0.038-11.242,0.015-22.485,0.015-33.727C369.031,10.451,369.031,10.104,369.031,9.527z M387.605,35.21
		c1.311-4.077,1.861-8.043,1.318-12.362c-5.912,4.608-11.852,4.034-17.87,0.44c0,4.041,0,7.882,0,11.875
		C376.589,32.239,382.042,31.502,387.605,35.21z"/>
	<path d="M-0.007,17.071c0.191-2.592,0.932-4.985,2.187-7.201c2.93-5.173,7.625-7.687,13.28-8.745
		c5.396-1.009,10.651-0.232,15.901,1.07c3.662,0.908,7.362,1.691,11.077,2.348c1.626,0.287,3.344,0.26,5.001,0.128
		c2.687-0.214,4.868-1.478,6.466-3.689c0.227-0.314,0.504-0.591,0.843-0.983c0.588,2.834-1.016,7.746-4.63,10.069
		c-3.375,2.169-7.102,2.765-11.127,2.494c0,12.966,0,25.989,0,39.129c0.386-0.094,0.76-0.159,1.117-0.277
		c5.18-1.71,9.222-4.935,12.383-9.326c0.461-0.64,0.893-1.3,1.369-1.928c0.111-0.146,0.347-0.198,0.525-0.293
		c0.088,0.182,0.29,0.398,0.248,0.543c-2.253,7.744-5.763,14.569-13.877,17.634c-6.13,2.315-12.435,2.165-18.737,0.653
		c-4.287-1.029-8.007-3.15-11.164-6.191c-7.647-7.365-9.42-18.375-4.622-28.137c2.873-5.846,7.173-10.485,12.196-14.522
		c0.195-0.157,0.376-0.33,0.795-0.699c-3.899-0.232-7.505-0.509-10.998,0.899C4.711,11.463,2.374,14.249-0.007,17.071z
		 M36.947,12.407c-1.841-0.356-3.631-0.702-5.554-1.074c0,0.495,0,0.881,0,1.268c-0.002,5.948,0.036,11.896-0.019,17.844
		c-0.038,4.106-1.091,7.949-3.736,11.165c-1.6,1.946-3.446,3.691-5.185,5.523c-0.237,0.25-0.497,0.478-0.774,0.743
		c4.518,3.775,9.702,4.556,15.268,4.103C36.947,38.775,36.947,25.616,36.947,12.407z M19.476,46.529
		c2.478-1.993,3.035-4.586,3.033-7.413c-0.006-9.436,0.002-18.872-0.018-28.308c-0.001-0.368-0.121-0.905-0.374-1.067
		c-0.497-0.318-1.04-0.203-1.458,0.342c-1.457,1.899-3.138,3.656-4.382,5.683c-4.198,6.844-5.175,14.178-2.698,21.857
		C14.698,41.092,16.845,43.948,19.476,46.529z"/>
	<path d="M141.658,9.11c-3.625-0.183-7.255-0.469-10.751,0.98c-3.477,1.44-5.8,4.228-8.152,7.025
		c0.259-2.707,1.018-5.191,2.357-7.48c3.005-5.139,7.76-7.541,13.407-8.551c5.229-0.935,10.325-0.193,15.414,1.057
		c3.729,0.916,7.488,1.746,11.269,2.408c2.691,0.471,5.436,0.535,8.029-0.675c1.497-0.698,2.682-1.75,3.626-3.098
		c0.167-0.239,0.458-0.391,0.692-0.583c0.078,0.292,0.238,0.588,0.221,0.875c-0.312,5.388-3.608,9.417-8.822,10.81
		c-2.329,0.622-4.684,0.972-7.175,0.628c0,13.029,0,26.028,0,39.214c3.296-0.849,6.17-2.385,8.755-4.485
		c2.577-2.094,4.555-4.713,6.576-7.77c0.144,0.55,0.348,0.877,0.277,1.125c-1.761,6.167-4.493,11.73-9.957,15.511
		c-2.818,1.95-6.028,2.892-9.388,3.328c-5.804,0.754-11.496,0.312-16.929-1.989c-9.308-3.941-14.987-12.71-14.725-22.806
		c0.141-5.457,2.209-10.3,5.263-14.742c2.607-3.791,5.798-7.041,9.413-9.881c0.249-0.195,0.466-0.429,0.699-0.646
		C141.724,9.279,141.691,9.194,141.658,9.11z M154.16,11.302c0,0.518,0,0.902,0,1.286c-0.004,6.047,0.089,12.096-0.066,18.139
		c-0.054,2.098-0.53,4.239-1.148,6.257c-1.038,3.388-3.405,5.937-5.869,8.386c-0.852,0.847-1.588,1.81-2.372,2.713
		c3.282,3.067,10.395,4.919,15.096,3.796c0.013-0.275,0.039-0.565,0.039-0.854c0.002-12.554,0.002-25.108,0.002-37.662
		c0-0.164,0.05-0.354-0.015-0.487c-0.1-0.203-0.252-0.492-0.429-0.53C157.706,11.983,156.004,11.663,154.16,11.302z M142.297,46.474
		c2.256-1.875,2.978-4.265,2.975-6.981c-0.011-9.559-0.004-19.117-0.004-28.676c0-0.321,0-0.641,0-0.926
		c-1.202-0.421-1.205-0.424-1.898,0.309c-5.752,6.089-8.802,13.188-8.182,21.691C135.61,37.679,138.125,42.418,142.297,46.474z"/>
	<path d="M449.326,24.778c2.761,1.899,4.565,4.329,4.908,7.906c3.416-2.719,6.665-5.305,9.957-7.926
		c3.14,2.473,5.371,5.292,5.262,9.607c-0.155,6.144-0.052,12.295-0.023,18.443c0.003,0.74-0.183,1.073-0.936,1.302
		c-3.21,0.973-6.107,2.583-8.737,4.649c-0.678,0.533-1.181,0.635-1.968,0.185c-1.078-0.615-2.257-1.062-3.414-1.526
		c-3.788-1.52-7.266-0.955-10.466,1.564c-0.222,0.175-0.76,0.239-0.974,0.094c-3.548-2.415-7.469-3.979-11.558-5.178
		c-0.281-0.082-0.558-0.179-1.033-0.333c2.282-1.909,2.02-4.453,2.016-6.936c-0.007-4.899,0.013-9.798-0.025-14.696
		c-0.004-0.506-0.255-1.047-0.51-1.505c-0.494-0.887-1.129-1.696-1.606-2.591c-1.649-3.097-1.422-5.719,1.053-8.201
		c1.439-1.443,3.254-2.515,4.932-3.709c0.195-0.139,0.594,0.01,1.081,0.035c-0.813,0.995-1.481,1.721-2.043,2.521
		c-1.36,1.936-1.347,3.226-0.004,5.15c0.526,0.754,1.089,1.481,1.642,2.216c1.432,1.901,2.31,4.028,2.548,6.619
		C442.836,29.821,446.089,27.293,449.326,24.778z M462.852,53.91c0-0.599,0-0.957,0-1.315c0-5.752-0.085-11.506,0.042-17.256
		c0.051-2.323-1.201-3.672-2.722-5.059c-1.831,1.347-3.612,2.633-5.355,3.969c-0.23,0.176-0.376,0.603-0.378,0.914
		c-0.023,5.128-0.004,10.255-0.032,15.383c-0.003,0.625,0.245,0.87,0.781,1.038c1.535,0.48,3.054,1.01,4.59,1.485
		C460.737,53.367,461.717,53.603,462.852,53.91z M447.286,53.886c0-0.49,0-0.844,0-1.198c0-5.62-0.076-11.242,0.04-16.859
		c0.042-2.038-0.538-3.639-1.958-5.032c-0.419-0.411-0.695-0.57-1.219-0.133c-1.412,1.176-2.89,2.274-4.3,3.452
		c-0.254,0.212-0.437,0.66-0.439,1c-0.028,5.028-0.01,10.057-0.032,15.085c-0.002,0.568,0.228,0.805,0.721,0.993
		c2.055,0.786,4.095,1.612,6.144,2.411C446.536,53.72,446.852,53.771,447.286,53.886z"/>
	<path d="M233.743,54.622c-1.793,1.622-3.541,3.204-5.32,4.814c-1.965-1.592-3.902-3.161-5.875-4.759
		c0.118-0.149,0.193-0.307,0.318-0.392c1.655-1.137,2.013-2.692,1.959-4.657c-0.143-5.158-0.079-10.323-0.032-15.484
		c0.017-1.867-1.118-2.857-2.498-3.703c-0.189-0.116-0.637,0-0.857,0.159c-1.599,1.15-3.183,2.323-4.737,3.533
		c-0.238,0.185-0.423,0.597-0.424,0.905c-0.025,5.556-0.028,11.113,0.004,16.669c0.002,0.378,0.255,0.797,0.494,1.122
		c0.443,0.602,0.961,1.149,1.512,1.794c-1.852,1.613-3.651,3.18-5.529,4.815c-1.899-1.591-3.778-3.165-5.71-4.783
		c0.213-0.253,0.365-0.517,0.589-0.684c1.246-0.93,1.552-2.14,1.525-3.678c-0.094-5.423-0.037-10.849-0.035-16.274
		c0-1.077-0.181-2.073-0.939-2.925c-0.504-0.566-0.938-0.781-1.51-0.133c-0.103,0.116-0.258,0.186-0.457,0.323
		c-0.267-0.314-0.511-0.601-0.824-0.97c1.772-1.62,3.546-3.13,5.177-4.781c0.792-0.802,1.333-0.691,2.151-0.133
		c2.012,1.372,3.094,3.256,3.38,5.64c0.057,0.474,0.121,0.948,0.207,1.626c1.313-0.968,2.468-1.813,3.616-2.669
		c2.133-1.59,4.277-3.165,6.379-4.794c0.577-0.447,0.908-0.357,1.393,0.117c1.834,1.791,3.081,3.911,3.757,6.376
		c0.068,0.247,0.142,0.493,0.298,1.033c3.289-2.639,6.444-5.17,9.682-7.768c1.355,1.316,2.768,2.634,4.113,4.019
		c0.567,0.584,0.948,0.593,1.518,0.022c0.693-0.695,1.482-1.294,2.274-1.973c0.331,0.307,0.636,0.589,0.963,0.892
		c-0.967,1.382-1.903,2.642-2.743,3.963c-0.279,0.438-0.437,1.032-0.44,1.556c-0.03,5.819,0.001,11.639-0.035,17.458
		c-0.008,1.241,0.61,2.045,1.52,2.689c0.223,0.158,0.774,0.189,0.943,0.031c0.802-0.753,1.38-0.493,1.947,0.328
		c-2.223,1.811-4.458,3.632-6.732,5.484c-2.683-1.429-4.395-3.536-4.554-6.644c-0.116-2.263-0.081-4.534-0.088-6.802
		c-0.012-3.978,0.015-7.957-0.029-11.934c-0.005-0.455-0.316-0.938-0.577-1.349c-0.186-0.292-0.529-0.484-0.801-0.722
		c-1.802-1.579-1.808-1.587-3.736-0.135c-1.021,0.769-2.402,1.379-2.918,2.412c-0.516,1.033-0.175,2.503-0.178,3.782
		c-0.009,4.143,0.033,8.286-0.026,12.427c-0.017,1.212,0.156,2.256,1.066,3.118C233.224,53.864,233.445,54.236,233.743,54.622z"/>
	<path d="M70.542,54.484c-1.941,1.685-3.799,3.299-5.749,4.992c-1.891-1.538-3.784-3.077-5.725-4.657
		c0.183-0.207,0.285-0.383,0.436-0.486c1.716-1.16,1.982-2.799,1.95-4.768c-0.122-7.557-0.09-15.117-0.102-22.676
		c-0.003-1.938,0.07-3.876,0.054-5.814c-0.021-2.407-0.537-4.638-2.479-6.301c-0.083-0.071-0.114-0.204-0.25-0.459
		c0.344,0.036,0.568,0.003,0.737,0.085c1.267,0.617,2.553,1.204,3.77,1.91c0.768,0.445,1.328,0.487,2.003-0.166
		c1.593-1.542,3.476-2.574,5.693-2.927c0.227-0.036,0.455-0.066,0.684-0.079c0.087-0.005,0.177,0.044,0.372,0.098
		c-0.239,0.214-0.426,0.376-0.607,0.545c-1.691,1.568-2.679,3.438-2.659,5.811c0.035,3.944,0.009,7.888,0.009,11.833
		c0,0.291,0,0.582,0,1.216c3.565-2.693,6.918-5.227,10.32-7.797c3.255,2.073,5.006,5.015,5.055,8.838
		c0.076,5.85,0.061,11.701,0.006,17.551c-0.04,4.296-2.233,7.46-5.586,9.909c-4.097,2.992-8.806,4.486-13.711,5.465
		c-0.232,0.046-0.492-0.049-0.739-0.078c-0.014-0.098-0.027-0.196-0.041-0.294c0.489-0.216,0.981-0.426,1.466-0.651
		c2.233-1.032,4.537-1.937,6.678-3.134c3.323-1.857,4.889-4.863,4.906-8.641c0.029-6.606,0.02-13.213,0-19.82
		c-0.005-1.658-1.067-2.7-2.344-3.531c-0.184-0.12-0.644-0.005-0.867,0.154c-1.573,1.129-3.132,2.279-4.656,3.473
		c-0.259,0.203-0.465,0.647-0.467,0.981c-0.028,5.587-0.029,11.175-0.001,16.763c0.002,0.381,0.209,0.813,0.445,1.129
		C69.531,53.483,70.022,53.929,70.542,54.484z"/>
	<path d="M271.868,58.874c-1.98-0.96-3.943-1.912-5.982-2.902c-0.944,4.849,0.142,8.962,3.493,12.548
		c-3.568-0.189-5.779-2.27-7.884-4.7c-1.711,1.438-3.269,3.062-5.762,3.122c0.32-0.388,0.594-0.705,0.853-1.035
		c1.412-1.797,2.088-3.851,2.102-6.127c0.009-1.512-0.046-3.026,0.021-4.534c0.037-0.814-0.307-1.05-1.022-1.041
		c-0.943,0.011-1.887,0.003-2.932,0.003c0-0.712-0.058-1.302,0.025-1.873c0.04-0.28,0.286-0.661,0.532-0.757
		c0.854-0.332,1.74-0.599,2.633-0.811c0.529-0.126,0.761-0.305,0.759-0.901c-0.024-5.62,0.001-11.239-0.036-16.859
		c-0.005-0.701-0.167-1.455-0.462-2.089c-0.497-1.07-0.93-1.154-1.904-0.493c-0.669,0.454-1.255,0.74-1.837-0.229
		c1.511-1.346,3.046-2.712,4.581-4.077c0.147-0.131,0.305-0.25,0.451-0.382c1.284-1.158,1.276-1.146,2.699-0.206
		c1.823,1.203,2.931,2.88,3.392,5.001c0.083,0.383,0.164,0.766,0.292,1.369c0.609-0.504,1.149-0.89,1.617-1.349
		c1.758-1.724,3.537-3.431,5.21-5.236c0.529-0.571,0.915-0.548,1.51-0.3c4.412,1.836,6.555,5.313,6.711,9.913
		c0.187,5.548,0.068,11.106,0.061,16.659c0,0.249-0.136,0.629-0.324,0.727c-3.263,1.711-5.97,4.158-8.729,6.536
		C271.914,58.873,271.875,58.872,271.868,58.874z M274.014,53.287c0.057-0.242,0.11-0.363,0.11-0.485
		c0.004-6.172,0.02-12.344-0.023-18.516c-0.004-0.541-0.263-1.214-0.639-1.591c-0.776-0.778-1.702-1.411-2.586-2.078
		c-0.415-0.312-0.803-0.269-1.216,0.121c-1.122,1.058-2.303,2.053-3.42,3.115c-0.226,0.215-0.387,0.617-0.389,0.933
		c-0.024,5.089-0.007,10.177-0.031,15.266c-0.003,0.59,0.233,0.771,0.751,0.918c1.767,0.501,3.52,1.054,5.275,1.598
		C272.559,52.789,273.262,53.037,274.014,53.287z"/>
	<path d="M284.27,14.522c1.38,0.634,2.828,1.157,4.117,1.94c0.946,0.575,1.541,0.495,2.332-0.202
		c1.909-1.683,4.113-2.778,6.949-3.063c-0.339,0.323-0.499,0.492-0.676,0.64c-1.942,1.623-3.038,3.606-3.026,6.227
		c0.043,9.795,0.025,19.589,0.001,29.384c-0.002,0.74,0.179,1.21,0.842,1.589c1.196,0.685,2.386,1.399,3.487,2.221
		c0.734,0.548,1.255,0.501,1.843-0.122c0.245-0.259,0.545-0.466,0.947-0.802c0.296,0.362,0.579,0.707,0.933,1.139
		c-2.244,1.924-4.499,3.858-6.639,5.694c-1.826-1.118-3.474-2.258-5.24-3.17c-1.744-0.9-3.608-1.568-5.466-2.357
		c0.037-0.077,0.066-0.209,0.146-0.29c1.254-1.277,1.699-2.854,1.7-4.59c0.004-9.762-0.003-19.524,0.008-29.285
		c0.002-1.647-0.915-2.831-1.883-4.006c-0.178-0.216-0.364-0.426-0.546-0.638C284.155,14.728,284.212,14.625,284.27,14.522z"/>
	<path d="M405.135,55.295c1.663-1.578,1.984-3.502,1.974-5.577c-0.029-6.115-0.009-12.231-0.013-18.346
		c0-0.466-0.006-0.83,0.531-1.119c3.238-1.74,6.445-3.537,9.7-5.334c3.046,3.127,6.2,6.364,9.308,9.554
		c-2.797,2.071-5.809,4.287-8.803,6.526c-1.051,0.786-2.087,1.599-3.071,2.467c-0.297,0.263-0.547,0.748-0.558,1.138
		c-0.055,2.004-0.008,4.011-0.037,6.016c-0.008,0.534,0.144,0.839,0.651,1.051c1.576,0.66,3.119,1.401,4.709,2.021
		c0.376,0.147,0.968,0.079,1.326-0.125c1.422-0.812,2.792-1.718,4.289-2.656c0.27,0.352,0.527,0.686,0.836,1.089
		c-1.008,0.67-2.096,1.37-3.161,2.104c-2.244,1.547-4.476,3.112-6.714,4.667c-0.395,0.274-0.724,0.57-1.306,0.238
		c-2.903-1.653-5.999-2.822-9.266-3.534C405.437,55.455,405.353,55.396,405.135,55.295z M420.912,36.677
		c-2.425-2.303-4.688-4.453-6.911-6.564c0,3.828,0,7.796,0,11.989C416.355,40.254,418.573,38.513,420.912,36.677z"/>
	<path d="M324.521,50.937c0.347,0.369,0.634,0.673,0.912,0.969c-3.441,2.376-6.838,4.73-10.251,7.061
		c-0.199,0.136-0.591,0.212-0.778,0.108c-3.066-1.696-6.304-2.931-9.846-3.678c0.184-0.243,0.3-0.414,0.434-0.569
		c1.081-1.258,1.504-2.73,1.501-4.37c-0.013-6.343,0.004-12.686-0.019-19.03c-0.002-0.637,0.171-0.962,0.76-1.277
		c3.179-1.703,6.321-3.474,9.597-5.288c3.006,3.12,6.123,6.355,9.282,9.633c-1.065,0.757-2.358,1.627-3.599,2.566
		c-2.8,2.119-5.585,4.26-8.344,6.432c-0.305,0.24-0.562,0.735-0.572,1.12c-0.057,2.003-0.01,4.009-0.037,6.014
		c-0.007,0.537,0.158,0.822,0.669,1.034c1.547,0.641,3.081,1.317,4.596,2.03c0.583,0.275,1.014,0.193,1.535-0.151
		C321.7,52.653,323.082,51.83,324.521,50.937z M313.365,42.167c2.429-1.908,4.653-3.655,6.888-5.41
		c-2.365-2.294-4.64-4.5-6.888-6.681C313.365,33.948,313.365,37.91,313.365,42.167z"/>
	<path d="M98.338,24.853c3.094,3.13,6.254,6.326,9.378,9.485c-3.142,2.335-6.236,4.837-9.54,7.022
		c-2.382,1.575-3.579,3.42-3.085,6.305c0.164,0.958,0.062,1.969,0.013,2.952c-0.029,0.593,0.207,0.876,0.732,1.096
		c1.545,0.646,3.057,1.371,4.613,1.988c0.351,0.139,0.899,0.088,1.235-0.096c1.121-0.615,2.231-1.27,3.259-2.026
		c0.839-0.617,1.44-0.679,1.946,0.403c-1.648,1.115-3.33,2.241-4.999,3.386c-1.705,1.17-3.39,2.369-5.104,3.526
		c-0.228,0.154-0.648,0.284-0.848,0.178c-3.115-1.659-6.356-2.976-10.039-3.689c2.116-1.837,2.15-4.161,2.142-6.52
		c-0.02-5.816,0.003-11.632-0.021-17.448c-0.003-0.636,0.172-0.96,0.761-1.277C91.958,28.43,95.098,26.654,98.338,24.853z
		 M94.867,42.168c2.41-1.886,4.635-3.628,6.877-5.383c-2.386-2.282-4.68-4.476-6.877-6.577
		C94.867,33.923,94.867,37.897,94.867,42.168z"/>
	<path d="M200.778,50.924c0.348,0.334,0.649,0.623,0.983,0.944c-2.572,1.762-5.034,3.446-7.494,5.134
		c-0.947,0.65-1.874,1.331-2.843,1.947c-0.22,0.14-0.641,0.198-0.855,0.082c-3.024-1.635-6.191-2.876-9.556-3.602
		c-0.058-0.012-0.105-0.074-0.246-0.178c1.984-1.692,1.997-3.99,1.986-6.327c-0.028-5.784,0.006-11.568-0.027-17.352
		c-0.004-0.758,0.223-1.137,0.904-1.508c2.853-1.552,5.659-3.192,8.479-4.803c0.279-0.159,0.543-0.345,0.824-0.524
		c3.184,3.232,6.34,6.435,9.497,9.64c-2.558,1.879-5.203,3.799-7.823,5.755c-1.393,1.041-2.773,2.105-4.089,3.24
		c-0.361,0.312-0.648,0.908-0.666,1.385c-0.074,1.936-0.013,3.877-0.042,5.816c-0.008,0.565,0.146,0.896,0.698,1.123
		c1.548,0.637,3.058,1.37,4.617,1.979c0.379,0.148,0.968,0.105,1.322-0.095C197.875,52.776,199.248,51.875,200.778,50.924z
		 M189.597,29.977c0,3.978,0,7.951,0,12.197c2.413-1.892,4.651-3.645,7.039-5.518C194.206,34.35,191.917,32.179,189.597,29.977z"/>
</g>
</svg>
