<?xml version="1.0" encoding="utf-8"?>
<!-- Generator: Adobe Illustrator 17.1.0, SVG Export Plug-In . SVG Version: 6.00 Build 0)  -->
<!DOCTYPE svg PUBLIC "-//W3C//DTD SVG 1.1 Tiny//EN" "http://www.w3.org/Graphics/SVG/1.1/DTD/svg11-tiny.dtd">
<svg version="1.1" baseProfile="tiny" id="Layer_1" xmlns="http://www.w3.org/2000/svg" xmlns:xlink="http://www.w3.org/1999/xlink"
	 x="0px" y="0px" viewBox="0 0 145.8 20" xml:space="preserve">
<g>
	<path d="M145.8,6.9c-0.6,1.4-1.8,2.5-2.6,3.8c0.5,0.3,0.9,0.6,1.3,0.8c0.6,0.2,0.7,0.6,0.7,1.2c-0.1,1,0,2,0,2.9
		c0,0.1,0,0.2-0.2,0.3c-0.9,0.3-1.6,0.8-2.4,1.3c-0.1,0.1-0.2,0.1-0.3,0c-1.3-0.7-2.6-0.7-3.9-0.1c-0.3,0.1-0.3,0.1-0.6-0.1
		c0.9-1.2,1.7-2.4,2.6-3.6c-0.6-0.3-1.2-0.7-1.8-0.9c-0.3-0.1-0.3-0.3-0.3-0.6c0-0.9,0-1.8,0-2.7c0-0.2,0.1-0.3,0.2-0.3
		c0.8-0.4,1.6-0.9,2.3-1.5c0.1-0.1,0.2-0.1,0.3,0c0.7,0.3,1.4,0.5,2.1,0.7c0.4,0.1,0.8,0,1.2,0c0.3,0,0.5-0.2,0.6-0.5
		c0.1-0.3,0-0.5-0.2-0.7c0,0-0.1-0.1-0.1-0.1c-0.1-0.2-0.3-0.3-0.2-0.5c0.1-0.2,0.4-0.2,0.6-0.2c0.3,0,0.5,0.3,0.6,0.6
		C145.8,6.6,145.8,6.8,145.8,6.9z M143.3,15.6c0-0.9,0-1.8,0-2.6c0-0.1-0.1-0.2-0.2-0.2c-0.3-0.2-0.6-0.3-0.9-0.5
		c-0.2-0.1-0.2,0-0.3,0.1c-0.7,0.9-1.3,1.7-2,2.5c-0.1,0.1-0.1,0.1-0.1,0.2c0,0,0,0,0,0.1C141,14.7,142.1,15,143.3,15.6z M140.3,8.9
		c0,0.5,0,0.9,0,1.3c0,0.4-0.1,0.8,0,1.1c0.2,0.3,0.6,0.4,0.9,0.6c0.2,0.1,0.3,0.1,0.4-0.1c0.4-0.6,0.8-1.1,1.3-1.6
		c0.2-0.3,0.4-0.5,0.6-0.8c0,0,0-0.1,0-0.1C142.4,9.5,141.3,9.3,140.3,8.9z"/>
	<path d="M109.9,18.9c-0.2-0.1-0.2-0.2-0.2-0.4c0.3-1.4,0.9-2.7,1.5-4.1c0.5-1.1,0.9-2.1,1.4-3.2c0.1-0.2,0.1-0.4-0.1-0.5
		c-1-0.8-2.1-0.9-3.3-0.4c-0.3,0.1-0.6,0.3-0.9,0.4c-0.2,0.1-0.2,0.2-0.2,0.4c0,0.9,0,1.8,0,2.6c-0.1,2-0.9,3.7-2.7,4.7
		c-1.1,0.6-2.2,0.6-3.4,0.4c-0.6-0.1-1.2-0.3-1.7-0.5c-0.9-0.3-1.7-0.2-2.5,0.2c-0.1,0-0.1,0-0.3,0.1c0.1-0.2,0.1-0.3,0.2-0.3
		c0.4-0.3,0.7-0.7,1.2-1c0.5-0.3,1.1-0.6,1.6-0.9c0.7-0.3,1.3-0.2,2-0.2c0.5,0,0.9,0.1,1.4,0c0.5,0,0.9-0.4,1-0.9
		c0.3-1-0.1-1.8-1.1-2.2c-0.6-0.3-1.2-0.4-1.8-0.4c-0.3,0-0.6,0-0.9,0c0.8-1.3,1.8-1.2,3-0.8c-0.3-0.9-0.7-1.4-1.4-1.9
		c-0.7-0.4-1.4-0.6-2.3-0.6c0.4-0.7,1-1,1.7-1c0.7,0,1.3,0.3,1.9,0.7c-0.2-0.9-0.6-1.6-1.3-2.2c-0.7-0.5-1.5-0.7-2.4-0.7
		c0.5-0.6,1-1,1.7-1c0.7,0,1.3,0.3,1.9,0.7c0-0.1,0-0.2,0-0.3c0-0.5,0-1.1,0-1.6c0-0.1,0.1-0.3,0.2-0.3c2-1.2,4-2.4,6-3.7
		c0.1,0,0.2-0.1,0.3,0c1.3,0.4,2.5,1,3.6,1.9c1.6,1.4,2.2,3.2,1.9,5.2c-0.3,1.7-1,3.2-1.9,4.7c-0.5,0.8-1.1,1.7-1.7,2.5
		c-0.1,0.1-0.1,0.2-0.2,0.3c0.3-0.1,0.4-0.1,0.6-0.2c1-0.2,2-0.1,2.9,0.1c0.1,0,0.2,0,0.3,0c0.2,0.1,0.4,0,0.5-0.2
		c0.1-0.1,0.2-0.2,0.2-0.4c0.2,0.1,0.3,0.2,0.5,0.3c-0.1,0.3-0.3,0.5-0.4,0.7c-0.4,0.7-0.8,1.4-1.2,2.1c-0.1,0.2-0.2,0.2-0.4,0.2
		c-0.7-0.1-1.4-0.3-2-0.3c-1.3-0.1-2.4,0.5-3.2,1.6C110,18.8,109.9,18.9,109.9,18.9z M108.1,2.8c0,0.8,0,1.6,0,2.4
		c0,1.1,0,1.1,1,1.6c1.4,0.7,2.8,0.5,3.9-0.5c0.2-0.1,0.2-0.3,0.1-0.5C112.3,3.9,110.2,2.9,108.1,2.8z M107.5,2.8
		c-0.3,0.2-0.5,0.3-0.7,0.4c-0.2,0.1-0.3,0.2-0.3,0.5c0,3,0,5.9,0,8.9c0,0.5,0,0.9-0.1,1.4c-0.1,1.2-0.6,2.2-1.7,2.9
		c0,0-0.1,0.1-0.2,0.1c0.2,0,0.3,0,0.5,0c1-0.1,1.6-0.6,2-1.5c0.3-0.8,0.4-1.6,0.4-2.5c0-3.3,0-6.6,0-9.8
		C107.5,3.1,107.5,2.9,107.5,2.8z M113,10.3c0.4-1.2,0.5-2.3,0.4-3.6c-1.7,1.3-3.5,1.2-5.2,0.1c0,1.2,0,2.3,0,3.5
		C109.7,9.4,111.3,9.2,113,10.3z"/>
	<path d="M-0.2,5c0.1-0.8,0.3-1.5,0.6-2.1c0.9-1.5,2.2-2.2,3.9-2.6C5.9,0,7.4,0.3,9,0.6c1.1,0.3,2.1,0.5,3.2,0.7
		c0.5,0.1,1,0.1,1.5,0c0.8-0.1,1.4-0.4,1.9-1.1c0.1-0.1,0.1-0.2,0.2-0.3c0.2,0.8-0.3,2.3-1.4,2.9c-1,0.6-2.1,0.8-3.2,0.7
		c0,3.8,0,7.6,0,11.4c0.1,0,0.2,0,0.3-0.1c1.5-0.5,2.7-1.4,3.6-2.7c0.1-0.2,0.3-0.4,0.4-0.6c0,0,0.1-0.1,0.2-0.1
		c0,0.1,0.1,0.1,0.1,0.2c-0.7,2.3-1.7,4.3-4.1,5.1c-1.8,0.7-3.6,0.6-5.5,0.2C5,16.8,3.9,16.2,3,15.3C0.8,13.2,0.2,10,1.6,7.1
		c0.8-1.7,2.1-3.1,3.6-4.2c0.1,0,0.1-0.1,0.2-0.2C4.3,2.6,3.2,2.5,2.2,2.9C1.2,3.3,0.5,4.2-0.2,5z M10.6,3.6C10.1,3.5,9.5,3.4,9,3.3
		c0,0.1,0,0.3,0,0.4c0,1.7,0,3.5,0,5.2c0,1.2-0.3,2.3-1.1,3.3c-0.5,0.6-1,1.1-1.5,1.6c-0.1,0.1-0.1,0.1-0.2,0.2
		c1.3,1.1,2.8,1.3,4.5,1.2C10.6,11.3,10.6,7.5,10.6,3.6z M5.5,13.6c0.7-0.6,0.9-1.3,0.9-2.2c0-2.8,0-5.5,0-8.3c0-0.1,0-0.3-0.1-0.3
		C6.1,2.8,6,2.8,5.9,2.9C5.4,3.5,4.9,4,4.6,4.6c-1.2,2-1.5,4.1-0.8,6.4C4.1,12,4.7,12.8,5.5,13.6z"/>
	<path d="M41.2,2.7c-1.1-0.1-2.1-0.1-3.1,0.3c-1,0.4-1.7,1.2-2.4,2.1c0.1-0.8,0.3-1.5,0.7-2.2c0.9-1.5,2.3-2.2,3.9-2.5
		c1.5-0.3,3-0.1,4.5,0.3c1.1,0.3,2.2,0.5,3.3,0.7c0.8,0.1,1.6,0.2,2.3-0.2c0.4-0.2,0.8-0.5,1.1-0.9c0-0.1,0.1-0.1,0.2-0.2
		c0,0.1,0.1,0.2,0.1,0.3c-0.1,1.6-1.1,2.7-2.6,3.2c-0.7,0.2-1.4,0.3-2.1,0.2c0,3.8,0,7.6,0,11.4c1-0.2,1.8-0.7,2.6-1.3
		c0.8-0.6,1.3-1.4,1.9-2.3c0,0.2,0.1,0.3,0.1,0.3c-0.5,1.8-1.3,3.4-2.9,4.5c-0.8,0.6-1.8,0.8-2.7,1c-1.7,0.2-3.4,0.1-4.9-0.6
		c-2.7-1.2-4.4-3.7-4.3-6.7c0-1.6,0.6-3,1.5-4.3C39,4.7,39.9,3.8,41,2.9C41.1,2.9,41.1,2.8,41.2,2.7C41.2,2.7,41.2,2.7,41.2,2.7z
		 M44.8,3.3c0,0.2,0,0.3,0,0.4c0,1.8,0,3.5,0,5.3c0,0.6-0.2,1.2-0.3,1.8c-0.3,1-1,1.7-1.7,2.4c-0.2,0.2-0.5,0.5-0.7,0.8
		c1,0.9,3,1.4,4.4,1.1c0-0.1,0-0.2,0-0.2c0-3.7,0-7.3,0-11c0,0,0-0.1,0-0.1c0-0.1-0.1-0.1-0.1-0.2C45.9,3.5,45.4,3.4,44.8,3.3z
		 M41.4,13.6c0.7-0.5,0.9-1.2,0.9-2c0-2.8,0-5.6,0-8.4c0-0.1,0-0.2,0-0.3c-0.4-0.1-0.4-0.1-0.6,0.1c-1.7,1.8-2.6,3.8-2.4,6.3
		C39.4,11,40.1,12.4,41.4,13.6z"/>
	<path d="M131,7.2c0.8,0.6,1.3,1.3,1.4,2.3c1-0.8,1.9-1.5,2.9-2.3c0.9,0.7,1.6,1.5,1.5,2.8c0,1.8,0,3.6,0,5.4c0,0.2-0.1,0.3-0.3,0.4
		c-0.9,0.3-1.8,0.8-2.6,1.4c-0.2,0.2-0.3,0.2-0.6,0.1c-0.3-0.2-0.7-0.3-1-0.4c-1.1-0.4-2.1-0.3-3.1,0.5c-0.1,0.1-0.2,0.1-0.3,0
		c-1-0.7-2.2-1.2-3.4-1.5c-0.1,0-0.2-0.1-0.3-0.1c0.7-0.6,0.6-1.3,0.6-2c0-1.4,0-2.9,0-4.3c0-0.1-0.1-0.3-0.1-0.4
		c-0.1-0.3-0.3-0.5-0.5-0.8c-0.5-0.9-0.4-1.7,0.3-2.4c0.4-0.4,0.9-0.7,1.4-1.1c0.1,0,0.2,0,0.3,0c-0.2,0.3-0.4,0.5-0.6,0.7
		c-0.4,0.6-0.4,0.9,0,1.5c0.2,0.2,0.3,0.4,0.5,0.6c0.4,0.6,0.7,1.2,0.7,1.9C129.1,8.7,130,8,131,7.2z M134.9,15.7c0-0.2,0-0.3,0-0.4
		c0-1.7,0-3.4,0-5c0-0.7-0.4-1.1-0.8-1.5c-0.5,0.4-1.1,0.8-1.6,1.2c-0.1,0.1-0.1,0.2-0.1,0.3c0,1.5,0,3,0,4.5c0,0.2,0.1,0.3,0.2,0.3
		c0.4,0.1,0.9,0.3,1.3,0.4C134.3,15.6,134.6,15.6,134.9,15.7z M130.4,15.7c0-0.1,0-0.2,0-0.3c0-1.6,0-3.3,0-4.9
		c0-0.6-0.2-1.1-0.6-1.5c-0.1-0.1-0.2-0.2-0.4,0c-0.4,0.3-0.8,0.7-1.3,1c-0.1,0.1-0.1,0.2-0.1,0.3c0,1.5,0,2.9,0,4.4
		c0,0.2,0.1,0.2,0.2,0.3c0.6,0.2,1.2,0.5,1.8,0.7C130.2,15.7,130.3,15.7,130.4,15.7z"/>
	<path d="M68,15.9c-0.5,0.5-1,0.9-1.6,1.4c-0.6-0.5-1.1-0.9-1.7-1.4c0,0,0.1-0.1,0.1-0.1c0.5-0.3,0.6-0.8,0.6-1.4c0-1.5,0-3,0-4.5
		c0-0.5-0.3-0.8-0.7-1.1c-0.1,0-0.2,0-0.3,0c-0.5,0.3-0.9,0.7-1.4,1C63,10,63,10.1,63,10.2c0,1.6,0,3.2,0,4.9c0,0.1,0.1,0.2,0.1,0.3
		c0.1,0.2,0.3,0.3,0.4,0.5c-0.5,0.5-1.1,0.9-1.6,1.4c-0.6-0.5-1.1-0.9-1.7-1.4c0.1-0.1,0.1-0.2,0.2-0.2c0.4-0.3,0.5-0.6,0.4-1.1
		c0-1.6,0-3.2,0-4.8c0-0.3-0.1-0.6-0.3-0.9c-0.1-0.2-0.3-0.2-0.4,0c0,0-0.1,0.1-0.1,0.1C59.9,9,59.9,9,59.8,8.8
		c0.5-0.5,1-0.9,1.5-1.4c0.2-0.2,0.4-0.2,0.6,0c0.6,0.4,0.9,1,1,1.6c0,0.1,0,0.3,0.1,0.5C63.3,9.3,63.7,9,64,8.8
		c0.6-0.5,1.2-0.9,1.9-1.4c0.2-0.1,0.3-0.1,0.4,0c0.5,0.5,0.9,1.1,1.1,1.9c0,0.1,0,0.1,0.1,0.3c1-0.8,1.9-1.5,2.8-2.3
		c0.4,0.4,0.8,0.8,1.2,1.2c0.2,0.2,0.3,0.2,0.4,0c0.2-0.2,0.4-0.4,0.7-0.6c0.1,0.1,0.2,0.2,0.3,0.3c-0.3,0.4-0.6,0.8-0.8,1.2
		C72,9.4,72,9.6,72,9.8c0,1.7,0,3.4,0,5.1c0,0.4,0.2,0.6,0.4,0.8c0.1,0,0.2,0.1,0.3,0c0.2-0.2,0.4-0.1,0.6,0.1
		c-0.6,0.5-1.3,1.1-2,1.6c-0.8-0.4-1.3-1-1.3-1.9c0-0.7,0-1.3,0-2c0-1.2,0-2.3,0-3.5c0-0.1-0.1-0.3-0.2-0.4
		c-0.1-0.1-0.2-0.1-0.2-0.2c-0.5-0.5-0.5-0.5-1.1,0c-0.3,0.2-0.7,0.4-0.9,0.7c-0.2,0.3-0.1,0.7-0.1,1.1c0,1.2,0,2.4,0,3.6
		c0,0.4,0,0.7,0.3,0.9C67.9,15.7,68,15.8,68,15.9z"/>
	<path d="M20.4,15.9c-0.6,0.5-1.1,1-1.7,1.5c-0.6-0.4-1.1-0.9-1.7-1.4c0.1-0.1,0.1-0.1,0.1-0.1c0.5-0.3,0.6-0.8,0.6-1.4
		c0-2.2,0-4.4,0-6.6c0-0.6,0-1.1,0-1.7c0-0.7-0.2-1.4-0.7-1.8c0,0,0-0.1-0.1-0.1c0.1,0,0.2,0,0.2,0c0.4,0.2,0.7,0.4,1.1,0.6
		c0.2,0.1,0.4,0.1,0.6,0c0.5-0.4,1-0.8,1.7-0.9c0.1,0,0.1,0,0.2,0c0,0,0.1,0,0.1,0C20.8,3.9,20.7,4,20.6,4c-0.5,0.5-0.8,1-0.8,1.7
		c0,1.2,0,2.3,0,3.5c0,0.1,0,0.2,0,0.4c1-0.8,2-1.5,3-2.3c1,0.6,1.5,1.5,1.5,2.6c0,1.7,0,3.4,0,5.1c0,1.3-0.7,2.2-1.6,2.9
		c-1.2,0.9-2.6,1.3-4,1.6c-0.1,0-0.1,0-0.2,0c0,0,0-0.1,0-0.1c0.1-0.1,0.3-0.1,0.4-0.2c0.7-0.3,1.3-0.6,1.9-0.9
		c1-0.5,1.4-1.4,1.4-2.5c0-1.9,0-3.9,0-5.8c0-0.5-0.3-0.8-0.7-1c-0.1,0-0.2,0-0.3,0c-0.5,0.3-0.9,0.7-1.4,1
		c-0.1,0.1-0.1,0.2-0.1,0.3c0,1.6,0,3.3,0,4.9c0,0.1,0.1,0.2,0.1,0.3C20.1,15.6,20.3,15.7,20.4,15.9z"/>
	<path d="M79.2,17.2c-0.6-0.3-1.2-0.6-1.7-0.8c-0.3,1.4,0,2.6,1,3.7c-1-0.1-1.7-0.7-2.3-1.4c-0.5,0.4-1,0.9-1.7,0.9
		c0.1-0.1,0.2-0.2,0.2-0.3c0.4-0.5,0.6-1.1,0.6-1.8c0-0.4,0-0.9,0-1.3c0-0.2-0.1-0.3-0.3-0.3c-0.3,0-0.6,0-0.9,0c0-0.2,0-0.4,0-0.5
		c0-0.1,0.1-0.2,0.2-0.2c0.2-0.1,0.5-0.2,0.8-0.2c0.2,0,0.2-0.1,0.2-0.3c0-1.6,0-3.3,0-4.9c0-0.2,0-0.4-0.1-0.6
		c-0.1-0.3-0.3-0.3-0.6-0.1c-0.2,0.1-0.4,0.2-0.5-0.1C74.5,8.4,75,8,75.4,7.6c0,0,0.1-0.1,0.1-0.1c0.4-0.3,0.4-0.3,0.8-0.1
		c0.5,0.4,0.9,0.8,1,1.5c0,0.1,0,0.2,0.1,0.4c0.2-0.1,0.3-0.3,0.5-0.4c0.5-0.5,1-1,1.5-1.5c0.2-0.2,0.3-0.2,0.4-0.1
		c1.3,0.5,1.9,1.6,2,2.9c0.1,1.6,0,3.2,0,4.9c0,0.1,0,0.2-0.1,0.2C80.8,15.8,80,16.5,79.2,17.2C79.2,17.2,79.2,17.2,79.2,17.2z
		 M79.8,15.6c0-0.1,0-0.1,0-0.1c0-1.8,0-3.6,0-5.4c0-0.2-0.1-0.4-0.2-0.5c-0.2-0.2-0.5-0.4-0.8-0.6c-0.1-0.1-0.2-0.1-0.4,0
		c-0.3,0.3-0.7,0.6-1,0.9c-0.1,0.1-0.1,0.2-0.1,0.3c0,1.5,0,3,0,4.5c0,0.2,0.1,0.2,0.2,0.3c0.5,0.1,1,0.3,1.5,0.5
		C79.4,15.4,79.6,15.5,79.8,15.6z"/>
	<path d="M82.8,4.2c0.4,0.2,0.8,0.3,1.2,0.6c0.3,0.2,0.4,0.1,0.7-0.1c0.6-0.5,1.2-0.8,2-0.9C86.6,3.9,86.6,4,86.5,4
		c-0.6,0.5-0.9,1.1-0.9,1.8c0,2.9,0,5.7,0,8.6c0,0.2,0.1,0.4,0.2,0.5c0.3,0.2,0.7,0.4,1,0.6c0.2,0.2,0.4,0.1,0.5,0
		c0.1-0.1,0.2-0.1,0.3-0.2c0.1,0.1,0.2,0.2,0.3,0.3c-0.7,0.6-1.3,1.1-1.9,1.7c-0.5-0.3-1-0.7-1.5-0.9c-0.5-0.3-1.1-0.5-1.6-0.7
		c0,0,0-0.1,0-0.1c0.4-0.4,0.5-0.8,0.5-1.3c0-2.8,0-5.7,0-8.5c0-0.5-0.3-0.8-0.5-1.2C82.9,4.5,82.8,4.4,82.8,4.2
		C82.8,4.3,82.8,4.3,82.8,4.2z"/>
	<path d="M118.1,16.1c0.5-0.5,0.6-1,0.6-1.6c0-1.8,0-3.6,0-5.4c0-0.1,0-0.2,0.2-0.3c0.9-0.5,1.9-1,2.8-1.6c0.9,0.9,1.8,1.9,2.7,2.8
		c-0.8,0.6-1.7,1.3-2.6,1.9c-0.3,0.2-0.6,0.5-0.9,0.7c-0.1,0.1-0.2,0.2-0.2,0.3c0,0.6,0,1.2,0,1.8c0,0.2,0,0.2,0.2,0.3
		c0.5,0.2,0.9,0.4,1.4,0.6c0.1,0,0.3,0,0.4,0c0.4-0.2,0.8-0.5,1.3-0.8c0.1,0.1,0.2,0.2,0.2,0.3c-0.3,0.2-0.6,0.4-0.9,0.6
		c-0.7,0.5-1.3,0.9-2,1.4c-0.1,0.1-0.2,0.2-0.4,0.1c-0.8-0.5-1.8-0.8-2.7-1C118.2,16.2,118.1,16.2,118.1,16.1z M122.7,10.7
		c-0.7-0.7-1.4-1.3-2-1.9c0,1.1,0,2.3,0,3.5C121.4,11.7,122,11.2,122.7,10.7z"/>
	<path d="M94.5,14.9c0.1,0.1,0.2,0.2,0.3,0.3c-1,0.7-2,1.4-3,2.1c-0.1,0-0.2,0.1-0.2,0c-0.9-0.5-1.8-0.9-2.9-1.1
		c0.1-0.1,0.1-0.1,0.1-0.2c0.3-0.4,0.4-0.8,0.4-1.3c0-1.9,0-3.7,0-5.6c0-0.2,0-0.3,0.2-0.4c0.9-0.5,1.8-1,2.8-1.5
		c0.9,0.9,1.8,1.9,2.7,2.8c-0.3,0.2-0.7,0.5-1.1,0.7c-0.8,0.6-1.6,1.2-2.4,1.9c-0.1,0.1-0.2,0.2-0.2,0.3c0,0.6,0,1.2,0,1.8
		c0,0.2,0,0.2,0.2,0.3c0.5,0.2,0.9,0.4,1.3,0.6c0.2,0.1,0.3,0.1,0.4,0C93.7,15.4,94.1,15.1,94.5,14.9z M91.3,12.3
		c0.7-0.6,1.4-1.1,2-1.6c-0.7-0.7-1.4-1.3-2-2C91.3,9.9,91.3,11.1,91.3,12.3z"/>
	<path d="M28.5,7.3c0.9,0.9,1.8,1.8,2.7,2.8c-0.9,0.7-1.8,1.4-2.8,2c-0.7,0.5-1,1-0.9,1.8c0,0.3,0,0.6,0,0.9c0,0.2,0.1,0.3,0.2,0.3
		c0.5,0.2,0.9,0.4,1.3,0.6c0.1,0,0.3,0,0.4,0c0.3-0.2,0.7-0.4,1-0.6c0.2-0.2,0.4-0.2,0.6,0.1c-0.5,0.3-1,0.7-1.5,1
		c-0.5,0.3-1,0.7-1.5,1c-0.1,0-0.2,0.1-0.2,0.1c-0.9-0.5-1.9-0.9-2.9-1.1c0.6-0.5,0.6-1.2,0.6-1.9c0-1.7,0-3.4,0-5.1
		c0-0.2,0.1-0.3,0.2-0.4C26.7,8.3,27.6,7.8,28.5,7.3z M27.5,12.3c0.7-0.6,1.4-1.1,2-1.6c-0.7-0.7-1.4-1.3-2-1.9
		C27.5,9.9,27.5,11.1,27.5,12.3z"/>
	<path d="M58.4,14.9c0.1,0.1,0.2,0.2,0.3,0.3c-0.8,0.5-1.5,1-2.2,1.5c-0.3,0.2-0.5,0.4-0.8,0.6c-0.1,0-0.2,0.1-0.2,0
		c-0.9-0.5-1.8-0.8-2.8-1.1c0,0,0,0-0.1-0.1c0.6-0.5,0.6-1.2,0.6-1.8c0-1.7,0-3.4,0-5.1c0-0.2,0.1-0.3,0.3-0.4
		c0.8-0.5,1.7-0.9,2.5-1.4c0.1,0,0.2-0.1,0.2-0.2c0.9,0.9,1.9,1.9,2.8,2.8c-0.7,0.5-1.5,1.1-2.3,1.7c-0.4,0.3-0.8,0.6-1.2,0.9
		c-0.1,0.1-0.2,0.3-0.2,0.4c0,0.6,0,1.1,0,1.7c0,0.2,0,0.3,0.2,0.3c0.5,0.2,0.9,0.4,1.3,0.6c0.1,0,0.3,0,0.4,0
		C57.6,15.4,58,15.1,58.4,14.9z M55.2,8.7c0,1.2,0,2.3,0,3.6c0.7-0.6,1.4-1.1,2.1-1.6C56.5,10,55.8,9.4,55.2,8.7z"/>
</g>
</svg>
